<svg height="300" viewBox="0 0 1000 300" width="1000" xmlns="http://www.w3.org/2000/svg" xmlns:xlink="http://www.w3.org/1999/xlink">
    <linearGradient id="a" gradientUnits="userSpaceOnUse" x1="130.37038" x2="288.88889" y1="188.88889" y2="63.703705">
        <stop offset="0" stop-color="#0095d5"/>
        <stop offset="1" stop-color="#806ee3"/>
    </linearGradient>
    <linearGradient id="b" gradientUnits="userSpaceOnUse" x1="92.957087" x2="154.96036" y1="187.12985" y2="83.12106">
        <stop offset="0" stop-color="#c757bc"/>
        <stop offset="1" stop-color="#f88909"/>
    </linearGradient>
    <rect fill="#2d2b2f" height="100%" width="100%"/>
    <path d="m146.2905 245.43925c-7.20015 0-5.97667-2.71867-8.45994-9.57434 0 0-21.17339-69.68389-21.17339-69.68389s162.98332-96.689674 162.98332-96.689674" fill="url(#b)"/>
    <path d="m146.2905 245.43925c5.55625 0 8.01119-2.54106 11.1125-5.55625 0 0 29.63333-28.81471 29.63333-28.81471s-36.96387-22.28982-36.96387-22.28982" fill="#a9c9dd"/>
    <path d="m150.06875 188.78403s89.56674 66.17308 89.56674 66.17308c10.22072 5.63941 17.59739 2.7196 20.14326-9.48915 0 0 36.45826-171.804797 36.45826-171.804797 3.73269-14.965203-5.7046-21.752718-15.4823-17.313645 0 0-214.082301 82.549202-214.082301 82.549202-14.613123 5.86129-14.527927 14.01397-2.663666 17.64665 0 0 54.938347 17.14714 54.938347 17.14714s127.1881-80.241503 127.1881-80.241503c6.00427-3.641011 11.51496-1.683526 6.99199 2.330661" fill="url(#a)"/>
    <path d="m421.67084 163.65949v-110.381619h-27.20673v-3.109343h57.52281v3.109343h-27.20672v110.381619z" fill="#c757bc"/>
    <path d="m501.7364 81.261942c8.91346 0 15.39124 3.264809 19.43336 9.794427 4.14581 6.425973 6.21871 16.634981 6.21871 30.627021v1.55466h-49.74948c0 13.26653 2.12472 23.06095 6.37416 29.38328 4.35308 6.32233 11.03817 9.48349 20.05526 9.48349 7.25512 0 13.99202-1.60649 20.21071-4.81948v3.42028c-6.52962 3.0057-13.26652 4.50854-20.21071 4.50854-19.69249 0-29.53873-13.99203-29.53873-41.97611 0-14.51025 2.17653-25.133838 6.52961-31.870746s11.24545-10.105362 20.67711-10.105362zm-24.09741 38.866768h46.64013c-.10364-7.46242-.77733-13.6811-2.02106-18.65604-1.24374-5.078597-3.05753-8.757985-5.44136-11.038168-2.28018-2.38383-4.61219-3.990323-6.99602-4.819479-2.28018-.829158-4.97494-1.243738-8.08428-1.243738-8.08429 0-14.09568 2.85023-18.03419 8.550689-3.83485 5.700461-5.85592 14.769376-6.06322 27.206736z" fill="#d66783"/>
    <path d="m578.69261 143.44877c0 7.98065.9328 13.11106 2.79841 15.39125 1.96924 2.17653 6.01138 3.2648 12.12643 3.2648 3.31661 0 6.63324-.25911 9.94988-.77733v3.10934c-3.42028.51822-6.7369.77733-9.94988.77733-7.04785 0-11.81551-1.45102-14.30299-4.35307-2.48747-2.90205-3.73121-8.70616-3.73121-17.41232v-90.170899h-21.7654v-3.109343h24.87476z" fill="#ec7d35"/>
    <path d="m657.20347 81.261942c8.91346 0 15.39126 3.264809 19.4334 9.794427 4.14578 6.425973 6.21867 16.634981 6.21867 30.627021v1.55466h-49.74944c0 13.26653 2.12471 23.06095 6.37413 29.38328 4.35307 6.32233 11.03816 9.48349 20.05525 9.48349 7.25515 0 13.99206-1.60649 20.21075-4.81948v3.42028c-6.52962 3.0057-13.26654 4.50854-20.21075 4.50854-19.69249 0-29.53873-13.99203-29.53873-41.97611 0-14.51025 2.17654-25.133838 6.52961-31.870746 4.35308-6.736908 11.24545-10.105362 20.67711-10.105362zm-24.09737 38.866768h46.64013c-.10367-7.46242-.77737-13.6811-2.0211-18.65604-1.24374-5.078597-3.05751-8.757985-5.44132-11.038168-2.28021-2.38383-4.61221-3.990323-6.99602-4.819479-2.2802-.829158-4.97498-1.243738-8.08432-1.243738-8.08429 0-14.09567 2.85023-18.03415 8.550689-3.83488 5.700461-5.85595 14.769376-6.06322 27.206736z" fill="#f88909"/>
    <path d="m479.59579 187.21948v.62012h-5.82912c.0551.87276.31696 1.53881.7855 1.99816.47313.45475 1.12999.68213 1.97059.68213.4869 0 .95773-.0597 1.41248-.17915.45935-.11943.91411-.29857 1.36427-.53744v1.1989c-.45477.19292-.92101.33991-1.39872.44097-.47772.10106-.96233.15159-1.45384.15159-1.23103 0-2.20714-.35829-2.92832-1.07487-.71658-.71658-1.07487-1.6858-1.07487-2.90767 0-1.2632.33992-2.26457 1.01975-3.00412.68443-.74414 1.60542-1.11621 2.76297-1.11621 1.03812 0 1.85805.33532 2.4598 1.00597.60634.66605.90951 1.57326.90951 2.72162zm-1.26781-.37207c-.009-.69361-.20439-1.24712-.58565-1.66053-.37668-.41342-.87737-.62012-1.50207-.62012-.70739 0-1.27468.19981-1.70188.59945-.42261.39963-.66606.96233-.73035 1.68809 0 0 4.51995-.007 4.51995-.007" fill="#29a1d4"/>
    <path d="m485.18373 187.51576c-1.02434 0-1.73403.11713-2.12907.3514s-.59256.6339-.59256 1.19889c0 .45016.14699.80845.44098 1.07487.29857.26183.70279.39275 1.21266.39275.70281 0 1.26551-.24805 1.6881-.74414.42719-.50069.64079-1.16445.64079-1.99127v-.2825zm2.52868-.52365v4.40283h-1.26778v-1.17133c-.28938.46853-.64997.81534-1.08177 1.04042-.43178.22048-.96003.33073-1.58472.33073-.79009 0-1.4194-.22049-1.88794-.66146-.46394-.44557-.69591-1.04042-.69591-1.78456 0-.86817.2894-1.52273.86818-1.96371.58337-.44097 1.45153-.66146 2.60448-.66146h1.77768v-.12402c0-.58337-.19292-1.03353-.57877-1.35048-.38127-.32154-.91871-.48231-1.61232-.48231-.44097 0-.87046.0528-1.28847.15847-.41801.10565-.81993.26413-1.20578.47543v-1.17134c.46395-.17914.91411-.31235 1.35048-.39963.43639-.0919.86128-.1378 1.27468-.1378 1.11621 0 1.94992.28939 2.50114.86816.55121.57878.82682 1.45613.82682 2.63206z" fill="#29a1d4"/>
    <path d="m495.25028 183.9053v1.19889c-.35828-.18373-.73034-.32154-1.11619-.41341-.38585-.0919-.78549-.1378-1.19891-.1378-.6293 0-1.10243.0965-1.41938.28939-.31235.19292-.46853.48231-.46853.86816 0 .29398.11255.52595.33764.69591.22507.16537.67752.32384 1.35736.47543 0 0 .43408.0965.43408.0965.90032.19292 1.53881.46623 1.91547.81993.38125.3491.57188.83831.57188 1.46761 0 .71658-.28479 1.28387-.85437 1.70188-.56501.418-1.34361.62701-2.3358.62701-.4134 0-.84518-.0413-1.29534-.12403-.44556-.0781-.91639-.19752-1.41248-.35829v-1.30914c.46852.24346.93016.4272 1.38491.55122.45476.11943.90493.17915 1.35048.17915.59715 0 1.05649-.10106 1.37803-.30317.32156-.20671.48234-.4961.48234-.86817 0-.34451-.11714-.60863-.35142-.79237-.22968-.18374-.73725-.36058-1.52273-.53054 0 0-.44096-.10336-.44096-.10336-.78549-.16536-1.35278-.418-1.70187-.75792-.34911-.34451-.52367-.81534-.52367-1.41249 0-.72576.25724-1.28617.77171-1.6812.51446-.39504 1.24481-.59256 2.19107-.59256.46854 0 .90951.0344 1.32292.10335.41342.0689.79467.17226 1.14376.31006" fill="#29a1d4"/>
    <path d="m500.90025 192.11152c-.3583.91869-.7074 1.51814-1.0473 1.79834-.33992.2802-.79468.4203-1.36427.4203h-1.01285v-1.06109h.74414c.34911 0 .62012-.0827.81303-.24805.19294-.16536.40654-.5558.6408-1.17133 0 0 .22738-.57877.22738-.57877s-3.12126-7.59299-3.12126-7.59299h1.34358s2.41157 6.0358 2.41157 6.0358 2.41157-6.0358 2.41157-6.0358h1.34358s-3.38997 8.43359-3.38997 8.43359" fill="#29a1d4"/>
    <path d="m511.78674 181.48684v2.19109h2.61139v.98529h-2.61139v4.18924c0 .6293.085 1.03353.25495 1.21267.17456.17915.52595.26872 1.05418.26872h1.30226v1.06109h-1.30226c-.97839 0-1.65362-.18144-2.0257-.54432-.37207-.36748-.55811-1.03354-.55811-1.99816v-4.18924h-.93017v-.98529h.93017v-2.19109z" fill="#29a1d4"/>
    <path d="m519.06278 184.56676c-.67982 0-1.21725.26642-1.61229.79926-.39504.52825-.59256 1.25402-.59256 2.1773 0 .92329.19522 1.65135.58566 2.18419.39504.52825.93477.79238 1.61919.79238.67526 0 1.21039-.26643 1.60542-.79927.39504-.53284.59256-1.2586.59256-2.1773 0-.9141-.19752-1.63757-.59256-2.17041-.39503-.53743-.93016-.80615-1.60542-.80615zm0-1.07487c1.10243 0 1.9683.35829 2.5976 1.07487.62932.71658.94398 1.70877.94398 2.97656 0 1.2632-.31466 2.25539-.94398 2.97657-.6293.71658-1.49517 1.07487-2.5976 1.07487-1.10701 0-1.97517-.35829-2.60448-1.07487-.62471-.72118-.93707-1.71337-.93707-2.97657 0-1.26779.31236-2.25998.93707-2.97656.62931-.71658 1.49747-1.07487 2.60448-1.07487z" fill="#29a1d4"/>
    <path d="m529.06046 188.34947v-4.67154h1.26781v4.62331c0 .73036.14239 1.27928.42716 1.64676.2848.36288.712.54432 1.28159.54432.68443 0 1.22416-.21818 1.6192-.65456.39963-.43638.59944-1.03124.59944-1.78456v-4.37527h1.2678v7.71701h-1.2678v-1.18511c-.30776.46853-.66605.81763-1.07487 1.0473-.40423.22509-.87506.33763-1.41248.33763-.88655 0-1.55949-.27561-2.01882-.82683-.45935-.55121-.68903-1.35737-.68903-2.41846z" fill="#29a1d4"/>
    <path d="m543.06822 183.9053v1.19889c-.35828-.18373-.73035-.32154-1.1162-.41341-.38585-.0919-.78549-.1378-1.19891-.1378-.6293 0-1.10243.0965-1.41938.28939-.31235.19292-.46852.48231-.46852.86816 0 .29398.11253.52595.3376.69591.22509.16537.67755.32384 1.35737.47543 0 0 .4341.0965.4341.0965.90031.19292 1.53879.46623 1.91545.81993.38127.3491.5719.83831.5719 1.46761 0 .71658-.2848 1.28387-.85439 1.70188-.565.418-1.34358.62701-2.33577.62701-.4134 0-.84519-.0413-1.29535-.12403-.44558-.0781-.91641-.19752-1.4125-.35829v-1.30914c.46854.24346.93018.4272 1.38493.55122.45475.11943.90491.17915 1.35049.17915.59714 0 1.05649-.10106 1.37803-.30317.32154-.20671.48231-.4961.48231-.86817 0-.34451-.11714-.60863-.3514-.79237-.22967-.18374-.73725-.36058-1.52273-.53054 0 0-.44098-.10336-.44098-.10336-.78548-.16536-1.35277-.418-1.70188-.75792-.34909-.34451-.52363-.81534-.52363-1.41249 0-.72576.25722-1.28617.77168-1.6812.51447-.39504 1.24484-.59256 2.19109-.59256.46853 0 .9095.0344 1.32292.10335.4134.0689.79466.17226 1.14377.31006" fill="#29a1d4"/>
    <path d="m552.10816 187.21948v.62012h-5.82912c.0551.87276.31695 1.53881.7855 1.99816.47312.45475 1.12999.68213 1.97059.68213.4869 0 .95773-.0597 1.41247-.17915.45936-.11943.91411-.29857 1.36428-.53744v1.1989c-.45477.19292-.92101.33991-1.39872.44097-.47772.10106-.96233.15159-1.45384.15159-1.23103 0-2.20714-.35829-2.92833-1.07487-.71658-.71658-1.07486-1.6858-1.07486-2.90767 0-1.2632.33991-2.26457 1.01975-3.00412.68443-.74414 1.60541-1.11621 2.76297-1.11621 1.03812 0 1.85805.33532 2.4598 1.00597.60634.66605.90951 1.57326.90951 2.72162zm-1.26781-.37207c-.009-.69361-.20439-1.24712-.58565-1.66053-.37668-.41342-.87737-.62012-1.50207-.62012-.70739 0-1.27468.19981-1.70188.59945-.42261.39963-.66606.96233-.73035 1.68809 0 0 4.51995-.007 4.51995-.007" fill="#29a1d4"/>
    <path d="m559.93392 187.64138c-.34807 0-.6444-.10818-.889-.32455-.2446-.22578-.36689-.58326-.36689-1.07245 0-.508.12229-.86548.36689-1.07244.2446-.21637.54093-.32456.889-.32456.35749 0 .65382.10819.889.32456.2446.20696.3669.56444.3669 1.07244 0 .48919-.1223.84667-.3669 1.07245-.23518.21637-.53151.32455-.889.32455z" fill="#29a1d4"/>
    <path d="m566.76359 183.67793h1.2678s1.58475 6.02202 1.58475 6.02202 1.57784-6.02202 1.57784-6.02202h1.49516s1.58475 6.02202 1.58475 6.02202 1.57787-6.02202 1.57787-6.02202h1.26778s-2.01883 7.71701-2.01883 7.71701h-1.49516s-1.66055-6.3252-1.66055-6.3252-1.6674 6.3252-1.6674 6.3252h-1.49519s-2.01882-7.71701-2.01882-7.71701" fill="#29a1d4"/>
    <path d="m583.52052 184.86304c-.1424-.0827-.29857-.1424-.46852-.17915-.16537-.0413-.3491-.062-.55121-.062-.71658 0-1.26779.23427-1.65365.7028-.38126.46394-.57189 1.13229-.57189 2.00505v4.06521h-1.27469v-7.71701h1.27469v1.19889c.26642-.46853.61322-.81534 1.04042-1.04042.4272-.22967.94625-.34451 1.55718-.34451.0873 0 .18374.007.2894.0207.10564.009.22277.0253.35139.0482 0 0 .007 1.30226.007 1.30226" fill="#29a1d4"/>
    <path d="m584.86413 183.67793h1.26778v7.71701h-1.26778zm0-3.00413h1.26778v1.60542h-1.26778z" fill="#29a1d4"/>
    <path d="m590.03176 181.48684v2.19109h2.61138v.98529h-2.61138v4.18924c0 .6293.085 1.03353.25495 1.21267.17454.17915.52593.26872 1.05418.26872h1.30225v1.06109h-1.30225c-.97839 0-1.65363-.18144-2.0257-.54432-.37208-.36748-.55811-1.03354-.55811-1.99816v-4.18924h-.93017v-.98529h.93017v-2.19109z" fill="#29a1d4"/>
    <path d="m595.57147 181.48684v2.19109h2.61139v.98529h-2.61139v4.18924c0 .6293.085 1.03353.25495 1.21267.17454.17915.52593.26872 1.05418.26872h1.30226v1.06109h-1.30226c-.97839 0-1.65362-.18144-2.0257-.54432-.37207-.36748-.55811-1.03354-.55811-1.99816v-4.18924h-.93017v-.98529h.93017v-2.19109z" fill="#29a1d4"/>
    <path d="m606.45796 187.21948v.62012h-5.82908c.0551.87276.31694 1.53881.78546 1.99816.47313.45475 1.13.68213 1.97062.68213.48691 0 .95773-.0597 1.41248-.17915.45935-.11943.91411-.29857 1.36427-.53744v1.1989c-.45477.19292-.92101.33991-1.39872.44097s-.96232.15159-1.45383.15159c-1.23106 0-2.20716-.35829-2.92833-1.07487-.71658-.71658-1.07487-1.6858-1.07487-2.90767 0-1.2632.33992-2.26457 1.01976-3.00412.68442-.74414 1.60541-1.11621 2.76296-1.11621 1.03812 0 1.85805.33532 2.45978 1.00597.60634.66605.9095 1.57326.9095 2.72162zm-1.26777-.37207c-.009-.69361-.2044-1.24712-.58568-1.66053-.37667-.41342-.87735-.62012-1.50204-.62012-.70741 0-1.27471.19981-1.70188.59945-.42261.39963-.66607.96233-.73039 1.68809 0 0 4.51999-.007 4.51999-.007" fill="#29a1d4"/>
    <path d="m614.95358 186.73717v4.65777h-1.26778v-4.61643c0-.73036-.1424-1.27698-.4272-1.63987-.28479-.36288-.71199-.54432-1.28159-.54432-.68442 0-1.22415.21819-1.61919.65457s-.59256 1.03123-.59256 1.78456v4.36149h-1.27469v-7.71701h1.27469v1.19889c.30317-.46394.65917-.81075 1.06799-1.04042.41342-.22967.88884-.34451 1.42626-.34451.88655 0 1.5572.27561 2.01194.82682.45475.54662.68213 1.35278.68213 2.41846z" fill="#29a1d4"/>
    <path d="m621.98845 183.67793h1.2678v7.71701h-1.2678zm0-3.00413h1.2678v1.60542h-1.2678z" fill="#29a1d4"/>
    <path d="m632.31686 186.73717v4.65777h-1.26778v-4.61643c0-.73036-.1424-1.27698-.4272-1.63987-.28479-.36288-.71199-.54432-1.28159-.54432-.68442 0-1.22415.21819-1.61919.65457s-.59256 1.03123-.59256 1.78456v4.36149h-1.27469v-7.71701h1.27469v1.19889c.30317-.46394.65917-.81075 1.06799-1.04042.41342-.22967.88884-.34451 1.42626-.34451.88655 0 1.5572.27561 2.01195.82682.45474.54662.68212 1.35278.68212 2.41846z" fill="#29a1d4"/>
    <path d="m640.57821 190.23739v4.09277h-1.27469v-10.65223h1.27469v1.17133c.26642-.45935.60174-.79926 1.00597-1.01975.40882-.22508.89572-.33762 1.46071-.33762.93707 0 1.69729.37207 2.28066 1.11621.58797.74414.88196 1.72255.88196 2.93522 0 1.21268-.29399 2.19108-.88196 2.93523-.58337.74414-1.34359 1.11621-2.28066 1.11621-.56499 0-1.05189-.11025-1.46071-.33073-.40423-.22508-.73955-.5673-1.00597-1.02664zm4.31326-2.69407c0-.93247-.19292-1.66283-.57877-2.19108-.38127-.53284-.90722-.79926-1.57785-.79926-.67065 0-1.1989.26642-1.58475.79926-.38126.52825-.57189 1.25861-.57189 2.19108s.19063 1.66513.57189 2.19797c.38585.52825.9141.79238 1.58475.79238.67063 0 1.19658-.26413 1.57785-.79238.38585-.53284.57877-1.2655.57877-2.19797z" fill="#29a1d4"/>
    <path d="m648.17807 188.34947v-4.67154h1.26781v4.62331c0 .73036.1424 1.27928.42719 1.64676.2848.36288.71199.54432 1.28156.54432.68443 0 1.22416-.21818 1.6192-.65456.39965-.43638.59947-1.03124.59947-1.78456v-4.37527h1.26778v7.71701h-1.26778v-1.18511c-.30776.46853-.66605.81763-1.07487 1.0473-.40423.22509-.87507.33763-1.41251.33763-.88653 0-1.55947-.27561-2.01882-.82683-.45935-.55121-.68903-1.35737-.68903-2.41846z" fill="#29a1d4"/>
    <path d="m661.73799 184.86304c-.14239-.0827-.29858-.1424-.46855-.17915-.16536-.0413-.3491-.062-.5512-.062-.71658 0-1.2678.23427-1.65365.7028-.38126.46394-.5719 1.13229-.5719 2.00505v4.06521h-1.27468v-7.71701h1.27468v1.19889c.26642-.46853.61323-.81534 1.04043-1.04042.42719-.22967.94625-.34451 1.55717-.34451.0873 0 .18375.007.28941.0207.10565.009.22278.0253.35139.0482 0 0 .007 1.30226.007 1.30226" fill="#29a1d4"/>
    <path d="m669.37919 187.21948v.62012h-5.82909c.0551.87276.31694 1.53881.78547 1.99816.47313.45475 1.13.68213 1.97061.68213.48691 0 .95773-.0597 1.41248-.17915.45935-.11943.91411-.29857 1.36427-.53744v1.1989c-.45476.19292-.921.33991-1.39872.44097-.47771.10106-.96232.15159-1.45383.15159-1.23105 0-2.20716-.35829-2.92833-1.07487-.71658-.71658-1.07487-1.6858-1.07487-2.90767 0-1.2632.33992-2.26457 1.01976-3.00412.68442-.74414 1.60541-1.11621 2.76296-1.11621 1.03812 0 1.85805.33532 2.45978 1.00597.60634.66605.90951 1.57326.90951 2.72162zm-1.26778-.37207c-.009-.69361-.2044-1.24712-.58568-1.66053-.37666-.41342-.87734-.62012-1.50204-.62012-.70741 0-1.2747.19981-1.70188.59945-.42261.39963-.66607.96233-.73038 1.68809 0 0 4.51998-.007 4.51998-.007" fill="#29a1d4"/>
    <path d="m675.90421 180.6738h1.27468v6.33209s3.78272-3.32796 3.78272-3.32796h1.6192s-4.09279 3.61045-4.09279 3.61045 4.26503 4.10656 4.26503 4.10656h-1.65364s-3.92052-3.76893-3.92052-3.76893v3.76893h-1.27468z" fill="#29a1d4"/>
    <path d="m686.63224 184.56676c-.67983 0-1.21727.26642-1.61231.79926-.39503.52825-.59254 1.25402-.59254 2.1773 0 .92329.19522 1.65135.58566 2.18419.39504.52825.93477.79238 1.61919.79238.67524 0 1.21037-.26643 1.60542-.79927.39504-.53284.59256-1.2586.59256-2.1773 0-.9141-.19752-1.63757-.59256-2.17041-.39505-.53743-.93018-.80615-1.60542-.80615zm0-1.07487c1.10243 0 1.9683.35829 2.5976 1.07487.62931.71658.94396 1.70877.94396 2.97656 0 1.2632-.31465 2.25539-.94396 2.97657-.6293.71658-1.49517 1.07487-2.5976 1.07487-1.10701 0-1.97518-.35829-2.6045-1.07487-.6247-.72118-.93705-1.71337-.93705-2.97657 0-1.26779.31235-2.25998.93705-2.97656.62932-.71658 1.49749-1.07487 2.6045-1.07487z" fill="#29a1d4"/>
    <path d="m693.52244 181.48684v2.19109h2.61139v.98529h-2.61139v4.18924c0 .6293.085 1.03353.25493 1.21267.17455.17915.52596.26872 1.0542.26872h1.30226v1.06109h-1.30226c-.97841 0-1.65364-.18144-2.0257-.54432-.37207-.36748-.55811-1.03354-.55811-1.99816v-4.18924h-.93017v-.98529h.93017v-2.19109z" fill="#29a1d4"/>
    <path d="m697.80814 180.6738h1.2678v10.72114h-1.2678z" fill="#29a1d4"/>
    <path d="m701.72175 183.67793h1.2678v7.71701h-1.2678zm0-3.00413h1.2678v1.60542h-1.2678z" fill="#29a1d4"/>
    <path d="m712.05016 186.73717v4.65777h-1.26781v-4.61643c0-.73036-.14239-1.27698-.42717-1.63987-.2848-.36288-.71199-.54432-1.28159-.54432-.68442 0-1.22415.21819-1.61919.65457s-.59257 1.03123-.59257 1.78456v4.36149h-1.27468v-7.71701h1.27468v1.19889c.30318-.46394.65918-.81075 1.068-1.04042.4134-.22967.88882-.34451 1.42626-.34451.88655 0 1.55719.27561 2.01194.82682.45475.54662.68213 1.35278.68213 2.41846z" fill="#29a1d4"/>
    <path d="m720.33757 187.64138c-.34807 0-.6444-.10818-.889-.32455-.2446-.22578-.3669-.58326-.3669-1.07245 0-.508.1223-.86548.3669-1.07244.2446-.21637.54093-.32456.889-.32456.35748 0 .65382.10819.889.32456.2446.20696.36689.56444.36689 1.07244 0 .48919-.12229.84667-.36689 1.07245-.23518.21637-.53152.32455-.889.32455z" fill="#29a1d4"/>
    <path d="m731.4116 187.51576c-1.02435 0-1.73404.11713-2.12908.3514-.39502.23427-.59253.6339-.59253 1.19889 0 .45016.14698.80845.44095 1.07487.29857.26183.7028.39275 1.21269.39275.70279 0 1.26549-.24805 1.6881-.74414.42718-.50069.64076-1.16445.64076-1.99127v-.2825zm2.5287-.52365v4.40283h-1.26781v-1.17133c-.28938.46853-.64996.81534-1.08174 1.04042-.43179.22048-.96004.33073-1.58475.33073-.79008 0-1.41939-.22049-1.88791-.66146-.46394-.44557-.69591-1.04042-.69591-1.78456 0-.86817.28939-1.52273.86815-1.96371.58337-.44097 1.45154-.66146 2.60451-.66146h1.77765v-.12402c0-.58337-.19292-1.03353-.57877-1.35048-.38125-.32154-.91868-.48231-1.61229-.48231-.44098 0-.87046.0528-1.28847.15847-.41801.10565-.81994.26413-1.20579.47543v-1.17134c.46394-.17914.9141-.31235 1.35049-.39963.43637-.0919.86126-.1378 1.27468-.1378 1.11621 0 1.94992.28939 2.50114.86816.55121.57878.82682 1.45613.82682 2.63206z" fill="#29a1d4"/>
    <path d="m741.47817 183.9053v1.19889c-.3583-.18373-.73037-.32154-1.11622-.41341-.38585-.0919-.78548-.1378-1.19888-.1378-.62931 0-1.10243.0965-1.41939.28939-.31236.19292-.46855.48231-.46855.86816 0 .29398.11255.52595.33764.69591.22507.16537.67753.32384 1.35736.47543 0 0 .43408.0965.43408.0965.90032.19292 1.53882.46623 1.91548.81993.38126.3491.57189.83831.57189 1.46761 0 .71658-.28479 1.28387-.85439 1.70188-.56499.418-1.34358.62701-2.33577.62701-.41342 0-.84521-.0413-1.29537-.12403-.44556-.0781-.91639-.19752-1.41248-.35829v-1.30914c.46852.24346.93017.4272 1.38494.55122.45474.11943.9049.17915 1.35046.17915.59716 0 1.05651-.10106 1.37805-.30317.32154-.20671.48231-.4961.48231-.86817 0-.34451-.11713-.60863-.35139-.79237-.22968-.18374-.73726-.36058-1.52273-.53054 0 0-.44098-.10336-.44098-.10336-.78548-.16536-1.35277-.418-1.70188-.75792-.34911-.34451-.52367-.81534-.52367-1.41249 0-.72576.25724-1.28617.77171-1.6812.51448-.39504 1.24483-.59256 2.19107-.59256.46854 0 .90952.0344 1.32292.10335.41342.0689.79468.17226 1.14379.31006" fill="#29a1d4"/>
    <path d="m747.12811 192.11152c-.35828.91869-.70738 1.51814-1.0473 1.79834s-.79468.4203-1.36427.4203h-1.01285v-1.06109h.74414c.34911 0 .62012-.0827.81304-.24805.19293-.16536.40653-.5558.64079-1.17133 0 0 .22738-.57877.22738-.57877s-3.12126-7.59299-3.12126-7.59299h1.34358s2.41157 6.0358 2.41157 6.0358 2.41157-6.0358 2.41157-6.0358h1.34358s-3.38997 8.43359-3.38997 8.43359" fill="#29a1d4"/>
    <path d="m758.68297 186.73717v4.65777h-1.26781v-4.61643c0-.73036-.14239-1.27698-.42717-1.63987-.28479-.36288-.71199-.54432-1.28159-.54432-.68442 0-1.22415.21819-1.61919.65457s-.59256 1.03123-.59256 1.78456v4.36149h-1.27469v-7.71701h1.27469v1.19889c.30317-.46394.65917-.81075 1.06799-1.04042.4134-.22967.88882-.34451 1.42626-.34451.88655 0 1.5572.27561 2.01194.82682.45475.54662.68213 1.35278.68213 2.41846z" fill="#29a1d4"/>
    <path d="m766.77893 183.9742v1.18512c-.35829-.19752-.71887-.34451-1.08175-.44098-.3583-.10105-.72119-.15158-1.08866-.15158-.82223 0-1.46073.26183-1.91548.78548-.45474.51906-.68212 1.24942-.68212 2.19108s.22738 1.67432.68212 2.19797c.45475.51907 1.09325.7786 1.91548.7786.36747 0 .73036-.0482 1.08866-.1447.36288-.10106.72346-.25034 1.08175-.44786v1.17133c-.3537.16537-.72117.28939-1.10242.37207-.37668.0827-.7786.12403-1.20578.12403-1.16216 0-2.08545-.36518-2.76987-1.09555-.68443-.73036-1.02664-1.71565-1.02664-2.95589 0-1.25861.34452-2.2485 1.03354-2.96967.69362-.72117 1.64217-1.08176 2.84565-1.08176.39044 0 .77169.0413 1.14377.12402.37207.0781.73265.19752 1.08175.35829z" fill="#29a1d4"/>
    <path d="m775.41233 186.73717v4.65777h-1.26777v-4.61643c0-.73036-.1424-1.27698-.4272-1.63987-.2848-.36288-.71199-.54432-1.28159-.54432-.68442 0-1.22416.21819-1.6192.65457-.39502.43638-.59253 1.03123-.59253 1.78456v4.36149h-1.27468v-10.72114h1.27468v4.20302c.30316-.46394.65915-.81075 1.06796-1.04042.41342-.22967.88884-.34451 1.42627-.34451.88654 0 1.55719.27561 2.01194.82682.45475.54662.68212 1.35278.68212 2.41846z" fill="#29a1d4"/>
    <path d="m780.94519 184.56676c-.67983 0-1.21727.26642-1.61231.79926-.39504.52825-.59257 1.25402-.59257 2.1773 0 .92329.19523 1.65135.58569 2.18419.39504.52825.93477.79238 1.61919.79238.67524 0 1.21038-.26643 1.60542-.79927s.59256-1.2586.59256-2.1773c0-.9141-.19752-1.63757-.59256-2.17041-.39504-.53743-.93018-.80615-1.60542-.80615zm0-1.07487c1.10243 0 1.9683.35829 2.5976 1.07487.62931.71658.94396 1.70877.94396 2.97656 0 1.2632-.31465 2.25539-.94396 2.97657-.6293.71658-1.49517 1.07487-2.5976 1.07487-1.10703 0-1.9752-.35829-2.6045-1.07487-.6247-.72118-.93705-1.71337-.93705-2.97657 0-1.26779.31235-2.25998.93705-2.97656.6293-.71658 1.49747-1.07487 2.6045-1.07487z" fill="#29a1d4"/>
    <path d="m791.0531 184.86304c-.1424-.0827-.29859-.1424-.46855-.17915-.16537-.0413-.3491-.062-.55121-.062-.71658 0-1.2678.23427-1.65365.7028-.38126.46394-.57189 1.13229-.57189 2.00505v4.06521h-1.27469v-7.71701h1.27469v1.19889c.26642-.46853.61322-.81534 1.04042-1.04042.42719-.22967.94625-.34451 1.55718-.34451.0873 0 .18374.007.2894.0207.10566.009.22279.0253.35139.0482 0 0 .007 1.30226.007 1.30226" fill="#29a1d4"/>
    <path d="m795.08387 184.56676c-.67984 0-1.21728.26642-1.61232.79926-.39504.52825-.59256 1.25402-.59256 2.1773 0 .92329.19522 1.65135.58568 2.18419.39504.52825.93477.79238 1.6192.79238.67523 0 1.21037-.26643 1.60541-.79927s.59256-1.2586.59256-2.1773c0-.9141-.19752-1.63757-.59256-2.17041-.39504-.53743-.93018-.80615-1.60541-.80615zm0-1.07487c1.10243 0 1.96829.35829 2.5976 1.07487.6293.71658.94395 1.70877.94395 2.97656 0 1.2632-.31465 2.25539-.94395 2.97657-.62931.71658-1.49517 1.07487-2.5976 1.07487-1.10704 0-1.97521-.35829-2.60451-1.07487-.6247-.72118-.93705-1.71337-.93705-2.97657 0-1.26779.31235-2.25998.93705-2.97656.6293-.71658 1.49747-1.07487 2.60451-1.07487z" fill="#29a1d4"/>
    <path d="m800.5891 188.34947v-4.67154h1.26781v4.62331c0 .73036.1424 1.27928.42719 1.64676.2848.36288.71199.54432 1.28157.54432.68442 0 1.22415-.21818 1.61919-.65456.39963-.43638.59944-1.03124.59944-1.78456v-4.37527h1.26781v7.71701h-1.26781v-1.18511c-.30774.46853-.66603.81763-1.07487 1.0473-.40421.22509-.87504.33763-1.41247.33763-.88654 0-1.55948-.27561-2.01883-.82683-.45935-.55121-.68903-1.35737-.68903-2.41846z" fill="#29a1d4"/>
    <path d="m814.59686 183.9053v1.19889c-.3583-.18373-.73037-.32154-1.11622-.41341-.38586-.0919-.78548-.1378-1.19888-.1378-.62931 0-1.10244.0965-1.41939.28939-.31235.19292-.46852.48231-.46852.86816 0 .29398.11253.52595.33761.69591.22509.16537.67754.32384 1.35736.47543 0 0 .4341.0965.4341.0965.90031.19292 1.53879.46623 1.91545.81993.38127.3491.5719.83831.5719 1.46761 0 .71658-.2848 1.28387-.85439 1.70188-.56499.418-1.34358.62701-2.33577.62701-.4134 0-.84518-.0413-1.29535-.12403-.44557-.0781-.91641-.19752-1.4125-.35829v-1.30914c.46854.24346.93019.4272 1.38493.55122.45475.11943.90491.17915 1.35049.17915.59715 0 1.05649-.10106 1.37803-.30317.32154-.20671.48231-.4961.48231-.86817 0-.34451-.11713-.60863-.35139-.79237-.22968-.18374-.73726-.36058-1.52273-.53054 0 0-.44099-.10336-.44099-.10336-.78547-.16536-1.35277-.418-1.70188-.75792-.34909-.34451-.52363-.81534-.52363-1.41249 0-.72576.25723-1.28617.77168-1.6812.51448-.39504 1.24484-.59256 2.1911-.59256.46852 0 .90949.0344 1.32291.10335.4134.0689.79466.17226 1.14377.31006" fill="#29a1d4"/>
    <path d="m841.34834 279.72607h1.0542s1.62264 6.52158 1.62264 6.52158 1.61748-6.52158 1.61748-6.52158h1.17305s1.62264 6.52158 1.62264 6.52158 1.61748-6.52158 1.61748-6.52158h1.05936s-1.93788 7.7153-1.93788 7.7153h-1.31258s-1.62779-6.69726-1.62779-6.69726-1.64333 6.69726-1.64333 6.69726h-1.31257s-1.9327-7.7153-1.9327-7.7153" fill="#ffd1dc"/>
    <path d="m852.22623 281.65361h.95083v5.78776h-.95083zm0-2.25308h.95083v1.20403h-.95083z" fill="#ffd1dc"/>
    <path d="m856.10195 280.01028v1.64333h1.95856v.73896h-1.95856v3.14192c0 .47198.0637.77515.19122.90951.13091.13437.39447.20156.79065.20156h.97669v.79581h-.97669c-.73381 0-1.24024-.13608-1.51929-.40825-.27906-.27561-.4186-.77515-.4186-1.49863v-3.14192h-.69762v-.73896h.69762v-1.64333z" fill="#ffd1dc"/>
    <path d="m864.12732 283.94805v3.49332h-.95086v-3.46234c0-.54775-.10679-.95772-.32038-1.22988-.21361-.27217-.534-.40826-.96118-.40826-.51333 0-.91813.16365-1.21441.49094s-.44442.77343-.44442 1.33842v3.27112h-.95602v-8.04084h.95602v3.15224c.22738-.34794.49438-.60805.801-.78031.31005-.17226.66662-.25839 1.06968-.25839.66492 0 1.16791.20671 1.50897.62013.34107.40996.5116 1.01458.5116 1.81385z" fill="#ffd1dc"/>
    <path d="m889.18006 279.40053v.79062h-.90951c-.34106 0-.57878.0689-.71316.20672-.1309.1378-.19634.38584-.19634.74414v.5116h1.56577v.73896h-1.56577v5.0488h-.95602v-5.0488h-.90951v-.73896h.90951v-.40309c0-.64423.14986-1.11276.44958-1.4056.29972-.29626.77514-.44439 1.42626-.44439z" fill="#ffd1dc"/>
    <path d="m893.32449 282.54245c-.1068-.062-.22394-.10681-.35139-.13438-.12402-.031-.26183-.0465-.41342-.0465-.53743 0-.95085.1757-1.24023.52708-.28594.34796-.42892.84922-.42892 1.50379v3.04892h-.95601v-5.78776h.95601v.89916c.19982-.3514.45992-.6115.78031-.78031.3204-.17226.7097-.25839 1.1679-.25839.0655 0 .1378.005.21704.0156.0792.007.16708.0189.26355.0362 0 0 .005.9766.005.9766" fill="#ffd1dc"/>
    <path d="m896.34757 282.32023c-.50987 0-.91295.19981-1.20923.59944-.29628.39619-.44442.94051-.44442 1.63298s.14642 1.23852.43926 1.63814c.29626.39619.70106.59428 1.21439.59428.50643 0 .90778-.19981 1.20406-.59944.29628-.39962.44442-.94395.44442-1.63298 0-.68557-.14814-1.22817-.44442-1.6278-.29628-.40308-.69763-.60462-1.20406-.60462zm0-.80616c.82682 0 1.47622.26872 1.9482.80616s.70797 1.28158.70797 2.23242c0 .9474-.23599 1.69154-.70797 2.23242-.47198.53744-1.12138.80616-1.9482.80616-.83027 0-1.48139-.26872-1.95337-.80616-.46854-.54088-.70281-1.28502-.70281-2.23242 0-.95084.23427-1.69498.70281-2.23242.47198-.53744 1.1231-.80616 1.95337-.80616z" fill="#ffd1dc"/>
    <path d="m905.08088 282.76465c.23772-.4272.52194-.74242.85267-.94567.33073-.20327.72002-.30491 1.16787-.30491.6029 0 1.06799.21188 1.39528.63564.32727.42029.49091 1.01974.49091 1.79834v3.49332h-.95599v-3.46234c0-.55465-.0982-.96633-.29456-1.23504-.19638-.26873-.4961-.4031-.89919-.4031-.49264 0-.88193.16365-1.16787.49094s-.42892.77343-.42892 1.33842v3.27112h-.95601v-3.46234c0-.55809-.0982-.96977-.29457-1.23504-.19637-.26873-.49954-.4031-.9095-.4031-.48576 0-.87161.16537-1.15755.4961-.28595.32729-.42892.77171-.42892 1.33326v3.27112h-.95602v-5.78776h.95602v.89916c.21705-.35484.47715-.61666.78031-.78547.30318-.16882.6632-.25323 1.08006-.25323.4203 0 .77686.1068 1.06968.32041.29628.21359.51505.52365.6563.93017z" fill="#ffd1dc"/>
    <path d="m917.19901 284.66634c0 .49266.1223.88023.3669 1.16271.24459.27907.58049.4186 1.00769.4186.42374 0 .75619-.14125.99734-.42376.24462-.2825.36693-.66835.36693-1.15755 0-.48232-.12403-.86472-.37209-1.1472-.24803-.28595-.58221-.42892-1.00253-.42892-.41684 0-.74929.14124-.99734.42373-.2446.2825-.3669.66663-.3669 1.15239zm2.81635 1.54512c-.20671.26527-.44442.46164-.71313.58912-.26527.12402-.57532.18603-.93017.18603-.59256 0-1.07487-.21359-1.44695-.64077-.36862-.43066-.55293-.99049-.55293-1.6795 0-.68903.18604-1.24886.55812-1.67949.37205-.43064.85264-.64596 1.44176-.64596.35485 0 .66662.0655.93533.19638.26873.12747.50472.32213.70797.58396v-.67696h.73899v3.80338c.50299-.0758.89573-.3049 1.17821-.68731.28595-.38585.42892-.88366.42892-1.49344 0-.36863-.0551-.71487-.16537-1.0387-.1068-.32383-.27044-.62355-.49093-.89916-.35828-.45131-.79581-.79582-1.31257-1.03354-.51333-.24116-1.07316-.36174-1.6795-.36174-.42374 0-.83025.0568-1.21954.17052-.38931.11025-.74933.27561-1.08006.4961-.54088.3514-.96462.81305-1.27121 1.38493-.30318.56845-.45477 1.18513-.45477 1.85002 0 .54778.0982 1.0611.29456 1.53996.19981.47888.48748.9009.86299 1.26608.36174.35828.78032.63044 1.25574.81648.47542.18948.98357.28421 1.52445.28421.44441 0 .88022-.0758 1.30741-.22735.43064-.14815.82511-.36175 1.1834-.6408 0 0 .46509.57362.46509.57362-.43064.33417-.90089.5891-1.41076.76481-.50643.17914-1.02148.26871-1.54514.26871-.63735 0-1.23851-.1137-1.80351-.34108-.56499-.22392-1.06797-.5512-1.50894-.98184s-.77687-.92845-1.00769-1.49344c-.23083-.56845-.34624-1.17823-.34624-1.82936 0-.62701.11713-1.22473.3514-1.79316.23426-.56845.56844-1.06799 1.00253-1.49862.44441-.43754.95773-.77171 1.53995-1.00254.58223-.23426 1.1989-.35139 1.85002-.35139.73036 0 1.40732.14986 2.03089.44958.62701.29974 1.15239.72521 1.57612 1.27643.25838.33761.45475.70451.58913 1.10069.13779.39619.20669.80615.20669 1.22989 0 .90608-.27389 1.62094-.82167 2.14458-.54775.52367-1.30395.79583-2.26859.81651z" fill="#ffd1dc"/>
    <path d="m924.19599 279.72607h1.05421s1.62264 6.52158 1.62264 6.52158 1.61747-6.52158 1.61747-6.52158h1.17306s1.62264 6.52158 1.62264 6.52158 1.61747-6.52158 1.61747-6.52158h1.05937s-1.93789 7.7153-1.93789 7.7153h-1.31257s-1.6278-6.69726-1.6278-6.69726-1.64332 6.69726-1.64332 6.69726h-1.31258s-1.9327-7.7153-1.9327-7.7153" fill="#ffd1dc"/>
    <path d="m937.24945 284.53199c-.76824 0-1.30051.0879-1.59679.26355-.29628.1757-.44442.47542-.44442.89916 0 .33762.11025.60634.33073.80616.22393.19637.5271.29456.90951.29456.5271 0 .94913-.18604 1.26608-.55811.32039-.37552.48059-.87333.48059-1.49344v-.21188zm1.89653-.39275v3.30213h-.95083v-.87849c-.21705.3514-.48749.6115-.81132.7803-.32385.16537-.72004.24805-1.18856.24805-.59256 0-1.06454-.16536-1.41594-.49609-.34797-.33417-.52195-.78031-.52195-1.33842 0-.65113.21705-1.14205.65114-1.47278.43753-.33073 1.08866-.49609 1.95337-.49609h1.33326v-.093c0-.43752-.1447-.77513-.4341-1.01285-.28595-.24116-.68902-.36174-1.20923-.36174-.33073 0-.65284.0396-.96634.11885-.31351.0792-.61496.19809-.90434.35658v-.8785c.34796-.13435.68558-.23426 1.01285-.29972.32729-.0689.64596-.10337.95602-.10337.83716 0 1.46245.21705 1.87587.65114.4134.43408.6201 1.09208.6201 1.97403" fill="#ffd1dc"/>
    <path d="m944.03974 279.40053v.79062h-.9095c-.34107 0-.57878.0689-.71313.20672-.13092.1378-.19638.38584-.19638.74414v.5116h2.60967v-.40309c0-.64423.14986-1.11276.44958-1.4056.29972-.29626.77514-.44439 1.42626-.44439h2.64583v8.04084h-.95602v-7.25022h-1.70013c-.34106 0-.57877.0689-.71313.20672-.13092.1378-.19637.38584-.19637.74414v.5116h1.56577v.73896h-1.56577v5.0488h-.95602v-5.0488h-2.60967v5.0488h-.95602v-5.0488h-.9095v-.73896h.9095v-.40309c0-.64423.14986-1.11276.44958-1.4056.29974-.29626.77517-.44439 1.42629-.44439z" fill="#ffd1dc"/>
    <path d="m956.29223 284.30976v.46511h-4.37182c.0413.65457.23769 1.1541.58909 1.4986.35485.34107.8475.5116 1.47797.5116.36518 0 .7183-.0448 1.05936-.13435.34451-.0896.68557-.22393 1.0232-.40307v.89916c-.34107.14469-.69075.25494-1.04905.33073-.35828.0758-.72174.11369-1.09037.11369-.92329 0-1.65538-.26872-2.19626-.80616-.53742-.53744-.80613-1.26435-.80613-2.18075 0-.9474.25494-1.69843.76481-2.25308.51331-.55811 1.20405-.83717 2.07221-.83717.7786 0 1.39356.2515 1.84486.75449.45475.49953.68213 1.17993.68213 2.0412zm-.95086-.27903c-.007-.52022-.15329-.93536-.43924-1.24542-.2825-.31005-.65802-.46508-1.12654-.46508-.53054 0-.95601.14986-1.2764.44958-.31696.29972-.49955.72175-.5478 1.26608 0 0 3.38998-.005 3.38998-.005" fill="#ffd1dc"/>
    <path d="m957.8942 279.72607h1.04386v6.83681h3.75687v.87849h-4.80073z" fill="#ffd1dc"/>
    <path d="m966.37431 284.53199c-.76827 0-1.30054.0879-1.59682.26355-.29628.1757-.44442.47542-.44442.89916 0 .33762.11025.60634.33073.80616.22394.19637.52711.29456.90951.29456.5271 0 .94913-.18604 1.26608-.55811.32039-.37552.48059-.87333.48059-1.49344v-.21188zm1.8965-.39275v3.30213h-.95083v-.87849c-.21705.3514-.48749.6115-.81132.7803-.32385.16537-.72004.24805-1.18856.24805-.59256 0-1.06454-.16536-1.41594-.49609-.34795-.33417-.52192-.78031-.52192-1.33842 0-.65113.21704-1.14205.65111-1.47278.43753-.33073 1.08866-.49609 1.95337-.49609h1.33326v-.093c0-.43752-.14469-.77513-.43408-1.01285-.28594-.24116-.68902-.36174-1.20925-.36174-.33073 0-.65284.0396-.96633.11885-.3135.0792-.61495.19809-.90435.35658v-.8785c.34796-.13435.68559-.23426 1.01288-.29972.32727-.0689.64593-.10337.95599-.10337.83716 0 1.46245.21705 1.87587.65114.4134.43408.6201 1.09208.6201 1.97403" fill="#ffd1dc"/>
    <path d="m971.15437 286.57319v3.06959h-.95601v-7.98917h.95601v.8785c.19982-.34451.4513-.59944.75446-.76481.30662-.16882.67181-.25323 1.09556-.25323.70279 0 1.27295.27906 1.71048.83717.44097.55811.66146 1.29191.66146 2.20141 0 .90951-.22049 1.64332-.66146 2.20141-.43753.55812-1.00769.83717-1.71048.83717-.42375 0-.78894-.0827-1.09556-.24805-.30316-.1688-.55464-.42546-.75446-.76999zm3.23493-2.02054c0-.69935-.14469-1.24711-.43407-1.6433-.28595-.39964-.68041-.59947-1.18338-.59947-.50299 0-.89918.19983-1.18856.59947-.28594.39619-.42892.94395-.42892 1.6433 0 .69937.14298 1.24886.42892 1.64849.28938.39618.68557.59428 1.18856.59428.50297 0 .89743-.1981 1.18338-.59428.28938-.39963.43407-.94912.43407-1.64849z" fill="#ffd1dc"/>
    <path d="m976.91629 279.40053h.95601v4.74905s2.83705-2.49597 2.83705-2.49597h1.21439s-3.06959 2.70785-3.06959 2.70785 3.19878 3.07991 3.19878 3.07991h-1.24023s-2.9404-2.8267-2.9404-2.8267v2.8267h-.95601z" fill="#ffd1dc"/>
    <path d="m983.09163 281.65361h.95084v5.78776h-.95084zm0-2.25308h.95084v1.20403h-.95084z" fill="#ffd1dc"/>
    <path d="m990.83792 283.94805v3.49332h-.95083v-3.46234c0-.54775-.10681-.95772-.32041-1.22988-.21359-.27217-.53399-.40826-.96118-.40826-.51333 0-.91812.16365-1.21439.49094-.29628.32729-.44442.77343-.44442 1.33842v3.27112h-.95602v-5.78776h.95602v.89916c.22737-.34794.49436-.60805.80098-.78031.31005-.17226.66662-.25839 1.06971-.25839.66489 0 1.16788.20671 1.50894.62013.34107.40996.5116 1.01458.5116 1.81385z" fill="#ffd1dc"/>
    <path d="m880.8828 281.62469c0-1.80247-1.46116-3.26363-3.2633-3.26363-1.09405 0-2.05945.54008-2.65179 1.36558-.592-.8255-1.55773-1.36558-2.65145-1.36558-1.80248 0-3.26364 1.46116-3.26364 3.26363 0 .25533.0324.50271.088.74117.45343 2.81516 3.58345 5.78577 5.82711 6.60135 2.24334-.81558 5.37402-3.78619 5.82646-6.60135" fill="#be1931"/>
    <path d="m710.79315 103.1895h.31091s46.01827-51.148664 46.01827-51.148664h4.19761s-50.06039 55.190814-50.06039 55.190814 50.83774 58.30015 50.83774 58.30015h-4.04216s-46.95107-54.10254-46.95107-54.10254h-.31091v54.10254h-3.10935v-113.490964h3.10935z" fill="#0594d6"/>
    <path d="m834.38945 90.907606h-31.09339v54.413474c0 7.46242 1.14008 12.43737 3.42026 14.92484 2.2802 2.48748 6.84058 3.73121 13.68113 3.73121 4.14578 0 8.29156-.72551 12.43734-2.17654v3.26481c-4.04215 1.34738-8.18793 2.02107-12.43734 2.02107-7.77336 0-13.11107-1.55467-16.01314-4.66401-2.79841-3.10934-4.19761-8.8098-4.19761-17.10138v-54.413474h-18.65605v-3.109343h18.65605v-29.538745h3.10936v29.538745h31.09339z" fill="#7e6fe3"/>
</svg>
