<svg height="1024" viewBox="0 0 1024 1024" width="1024" xmlns="http://www.w3.org/2000/svg" xmlns:xlink="http://www.w3.org/1999/xlink">
    <linearGradient id="a" gradientUnits="userSpaceOnUse" x1="351.723008" x2="823.17348" y1="645.019272" y2="272.705562">
        <stop offset="0" stop-color="#0095d5"/>
        <stop offset="1" stop-color="#806ee3"/>
    </linearGradient>
    <linearGradient id="b" gradientUnits="userSpaceOnUse" x1="240.451993" x2="424.856157" y1="639.787705" y2="330.454797">
        <stop offset="0" stop-color="#c757bc"/>
        <stop offset="1" stop-color="#f88909"/>
    </linearGradient>
    <rect fill="#2d2b2f" height="100%" width="100%"/>
    <path d="m444.06700853 717.65816143c-16.33737925 0-13.56125943-6.27686349-19.1958879-22.10522026 0 0-48.04312486-160.88604548-48.04312486-160.88604548s369.81458922-223.23693753 369.81458922-223.23693753" fill="url(#b)"/>
    <path d="m444.06700853 717.65816143c12.60731441 0 18.17765839-5.86679825 25.21463645-12.8282579 0 0 67.23901276-66.52735796 67.23901276-66.52735796s-83.87225632-51.46269461-83.87225632-51.46269461" fill="#a9c9dd"/>
    <path d="m452.6399863 586.85269097s203.22992117 152.78028776 203.22992117 152.78028776c23.19115489 13.02026032 39.92906485 6.27900608 45.70572803-21.90852899 0 0 82.7250077-396.66262013 82.7250077-396.66262013 8.46960073-34.55163146-12.94392684-50.22264764-35.12985255-39.97370265 0 0-485.75988862 190.58944711-485.75988862 190.58944711-33.15766278 13.53253329-32.9643439 32.35543062-6.04394052 40.74255071 0 0 124.65693974 39.58928638 124.65693974 39.58928638s288.59404169-185.26143249 288.59404169-185.26143249c13.62388836-8.40635682 26.12782573-3.88692909 15.8650568 5.38102818" fill="url(#a)"/>
</svg>
